# xmcd CD database file
#
# Track frame offsets:
#	150
#	11130
#	29827
#	47840
#	66197
#	85835
#	94810
#	114787
#	131972
#	146365
#	162805
#
# Disc length: 2406 seconds
#
# Revision: 53
# Processed by: cddbd v1.5.2PL0 Copyright (c) Steve Scherf et al.
# Submitted via: CDex 1.70beta2
#
DISCID=9409640b
DTITLE=Enya - Watermark
DYEAR=1988
DGENRE=New Age
TTITLE0=Watermark
TTITLE1=Cursum Perficio
TTITLE2=On Your Shore
TTITLE3=Storms in Africa
TTITLE4=Exile
TTITLE5=Miss Clare Remembers
TTITLE6=Orinoco Flow
TTITLE7=Evening Falls...
TTITLE8=River
TTITLE9=The Longships
TTITLE10=Na Laetha Geal M'Óige
EXTD=CDDBSort:enya,watermark - YEAR: 1988
EXTT0=
EXTT1=
EXTT2=
EXTT3=
EXTT4=
EXTT5=
EXTT6=
EXTT7=
EXTT8=
EXTT9=
EXTT10=
PLAYORDER=
